<svg width="29" height="29" viewBox="0 0 29 29" fill="none" xmlns="http://www.w3.org/2000/svg">
<path d="M22.8704 7.32548H20.4788C20.4788 3.97737 17.8482 1.34671 14.5001 1.34671C11.152 1.34671 8.5213 3.97737 8.5213 7.32548H6.12979C4.81446 7.32548 3.73828 8.40166 3.73828 9.71699V24.0661C3.73828 25.3814 4.81446 26.4576 6.12979 26.4576H22.8704C24.1857 26.4576 25.2619 25.3814 25.2619 24.0661V9.71699C25.2619 8.40166 24.1857 7.32548 22.8704 7.32548ZM14.5001 3.73822C16.5329 3.73822 18.0873 5.2927 18.0873 7.32548H10.9128C10.9128 5.2927 12.4673 3.73822 14.5001 3.73822ZM22.8704 24.0661H6.12979V9.71699H22.8704V24.0661ZM14.5001 14.5C12.4673 14.5 10.9128 12.9455 10.9128 10.9127H8.5213C8.5213 14.2609 11.152 16.8915 14.5001 16.8915C17.8482 16.8915 20.4788 14.2609 20.4788 10.9127H18.0873C18.0873 12.9455 16.5329 14.5 14.5001 14.5Z" fill="#583101"/>
</svg>
