<svg width="67" height="68" viewBox="0 0 67 68" fill="none" xmlns="http://www.w3.org/2000/svg">
<circle cx="33.9189" cy="34" r="33.0811" fill="#BC8A5F"/>
<path d="M46.6349 22.0227C46.6344 21.3597 46.4097 20.7163 45.9973 20.1972C45.5849 19.6781 45.0089 19.3138 44.3632 19.1635L43.619 16.461C43.4835 16.0238 43.2098 15.6424 42.839 15.3741C42.4682 15.1057 42.0204 14.9649 41.5628 14.9727H25.0932C24.6374 14.9627 24.191 15.103 23.8229 15.372C23.4548 15.641 23.1855 16.0237 23.0565 16.461L22.3124 19.1635C21.6436 19.3333 21.0533 19.7272 20.6399 20.2796C20.2265 20.832 20.015 21.5094 20.0407 22.1989C20.0403 22.8244 20.2423 23.4331 20.6164 23.9343C20.9906 24.4355 21.5168 24.8023 22.1165 24.9798L22.3124 30.4043C21.9988 30.4552 21.7102 30.6064 21.4899 30.8352C21.3516 30.9813 21.244 31.1536 21.1734 31.3419C21.1028 31.5303 21.0706 31.7309 21.0786 31.9318L21.5486 43.2118C21.5633 43.5584 21.6985 43.8889 21.9309 44.1463C22.1633 44.4038 22.4783 44.572 22.8215 44.6218L22.9782 48.9693C23.019 50.2854 23.572 51.5335 24.5193 52.448C25.4667 53.3624 26.7336 53.8709 28.0503 53.8652H38.6057C39.9258 53.876 41.1976 53.3698 42.1492 52.4549C43.1008 51.5399 43.6565 50.2888 43.6974 48.9693L43.854 44.6218C44.1937 44.5678 44.5041 44.3978 44.7326 44.1408C44.9611 43.8837 45.0935 43.5555 45.1074 43.2118L45.5774 31.9318C45.5854 31.7309 45.5532 31.5303 45.4826 31.3419C45.4119 31.1536 45.3043 30.9813 45.1661 30.8352C44.9535 30.6067 44.6711 30.4551 44.3632 30.4043L44.559 24.9798C45.179 24.7787 45.7167 24.3816 46.0912 23.8482C46.4656 23.3147 46.6564 22.674 46.6349 22.0227ZM25.0932 16.931L41.7194 16.9898L42.3069 19.0852H24.4078L25.0932 16.931ZM41.739 48.9106C41.7134 49.7209 41.3708 50.4889 40.7848 51.0492C40.1989 51.6096 39.4164 51.9175 38.6057 51.9068H28.0503C27.2422 51.9149 26.4633 51.6055 25.881 51.0451C25.2987 50.4848 24.9596 49.7184 24.9365 48.9106L24.7799 44.6414H41.8957L41.739 48.9106ZM29.2253 37.5131C29.2253 36.6997 29.4665 35.9046 29.9184 35.2283C30.3702 34.552 31.0125 34.0249 31.764 33.7136C32.5155 33.4024 33.3423 33.3209 34.1401 33.4796C34.9378 33.6383 35.6706 34.03 36.2458 34.6051C36.8209 35.1803 37.2126 35.913 37.3713 36.7108C37.5299 37.5085 37.4485 38.3354 37.1372 39.0869C36.826 39.8383 36.2989 40.4806 35.6226 40.9325C34.9463 41.3844 34.1512 41.6256 33.3378 41.6256C32.2471 41.6256 31.201 41.1923 30.4298 40.4211C29.6586 39.6498 29.2253 38.6038 29.2253 37.5131ZM42.4049 30.3652H24.2707L24.0749 25.1364H42.5811L42.4049 30.3652ZM43.6974 23.1781H22.9782C22.8354 23.1739 22.6951 23.1397 22.5664 23.0778C22.4377 23.0159 22.3235 22.9275 22.2312 22.8186C22.1388 22.7096 22.0704 22.5824 22.0304 22.4453C21.9904 22.3082 21.9797 22.1642 21.999 22.0227C21.999 21.763 22.1022 21.5139 22.2858 21.3303C22.4695 21.1467 22.7185 21.0435 22.9782 21.0435H43.6974C43.8391 21.0506 43.9779 21.0867 44.1052 21.1496C44.2325 21.2125 44.3455 21.3008 44.4373 21.4091C44.529 21.5174 44.5976 21.6433 44.6388 21.7792C44.6799 21.9151 44.6928 22.0579 44.6765 22.1989C44.6765 22.4586 44.5734 22.7077 44.3897 22.8913C44.2061 23.0749 43.9571 23.1781 43.6974 23.1781Z" fill="white"/>
</svg>
