<svg width="68" height="68" viewBox="0 0 68 68" fill="none" xmlns="http://www.w3.org/2000/svg">
<circle cx="34.9189" cy="34" r="33.0811" fill="#BC8A5F"/>
<g clip-path="url(#clip0_22_42)">
<path d="M30.3457 28.5885L30.3459 28.5889C31.0181 30.7982 30.7344 32.8895 30.1475 34.7223C29.5915 36.462 28.6949 38.1429 27.927 39.5824L27.9093 39.6156L27.8738 39.6823C27.0451 41.2358 26.3635 42.531 25.9618 43.7807C25.5782 44.977 25.5244 45.9323 25.7897 46.8043C26.5551 49.3195 28.3304 51.699 30.0746 53.539C30.7959 54.2973 31.5576 55.0158 32.3564 55.6914C38.6894 52.766 41.8836 43.7294 39.0344 34.3596C39.0344 34.3595 39.0344 34.3595 39.0344 34.3594M30.3457 28.5885L24.4421 19.3582C30.9899 19.9525 37.3709 25.7362 39.9135 34.0921L39.0344 34.3594M30.3457 28.5885C29.3434 25.3006 27.2857 22.4719 25.444 20.4245M30.3457 28.5885L25.444 20.4245M39.0344 34.3594C36.712 26.7275 31.1516 21.4843 25.444 20.4245M39.0344 34.3594L25.444 20.4245M20.9978 42.1875L20.9981 42.1866C21.5564 40.4487 22.4528 38.7682 23.2208 37.3284L23.2384 37.2955L23.274 37.2288C24.1025 35.6755 24.784 34.3805 25.1858 33.1309L20.9978 42.1875ZM20.9978 42.1875C20.4107 44.0212 20.1298 46.1135 20.8019 48.3221L20.802 48.3226M20.9978 42.1875L20.802 48.3226M20.802 48.3226C21.8044 51.6104 23.8621 54.4391 25.7038 56.4866C19.9961 55.4267 14.4357 50.1835 12.1133 42.5515C9.26205 33.1813 12.4599 24.1467 18.7911 21.2199M20.802 48.3226L18.7911 21.2199M18.7911 21.2199C19.5897 21.8962 20.3511 22.6155 21.072 23.3745C22.815 25.2108 24.5927 27.5916 25.358 30.1067C25.6234 30.9788 25.5695 31.9343 25.1858 33.1308L18.7911 21.2199ZM26.8076 56.6388L26.2948 57.1258C26.2946 57.1256 26.2943 57.1253 26.2941 57.1251L27.123 56.6628C27.0179 56.6562 26.9128 56.6482 26.8076 56.6388ZM26.8076 56.6388L26.9611 56.493L26.8076 56.6388Z" stroke="white" stroke-width="1.83784"/>
</g>
<g clip-path="url(#clip1_22_42)">
<path d="M54.608 19.3458L54.6079 19.3461C54.1268 20.7508 53.1917 21.7342 52.1959 22.4688C51.2512 23.1664 50.1511 23.7052 49.209 24.1666L49.1873 24.1773L49.1436 24.1986C48.1271 24.6965 47.2843 25.1151 46.6045 25.6153L54.608 19.3458ZM54.608 19.3458C55.323 17.2545 55.315 15.0053 55.1256 13.2448C57.7021 15.9457 58.6272 20.772 56.9652 25.6247M54.608 19.3458L56.9652 25.6247M44.6161 22.9165L44.6166 22.9162C45.5618 22.2204 46.6617 21.6817 47.604 21.2202L47.6255 21.2096L47.6692 21.1882C48.6857 20.6904 49.5285 20.2718 50.2083 19.7716L44.6161 22.9165ZM44.6161 22.9165C43.6198 23.6515 42.6859 24.6365 42.2049 26.0408L42.2048 26.0411M44.6161 22.9165L42.2048 26.0411M42.2048 26.0411C41.4898 28.1324 41.4978 30.3815 41.6872 32.1421C39.1106 29.4412 38.1855 24.6149 39.8476 19.7622C41.8881 13.8042 46.9558 10.298 51.358 11.1553M42.2048 26.0411L51.358 11.1553M56.9652 25.6247C54.9237 31.5817 49.8572 35.0903 45.4546 34.2317M56.9652 25.6247L45.4546 34.2317M54.6074 12.7499L55.0581 12.6891C55.0581 12.6894 55.0582 12.6898 55.0582 12.6902C55.0416 12.5639 55.0237 12.4378 55.0046 12.3119C54.7845 12.1204 54.5546 11.9414 54.3153 11.776C54.3672 12.056 54.4129 12.337 54.4523 12.6189C54.5045 12.6618 54.5562 12.7055 54.6074 12.7499ZM54.6074 12.7499L54.4725 12.7682L54.6074 12.7499ZM45.4546 34.2317C45.2925 33.5787 45.1658 32.9174 45.0752 32.2506C44.8585 30.6349 44.8287 28.7262 45.3764 27.127C45.5663 26.5725 45.954 26.0948 46.6042 25.6155L45.4546 34.2317ZM51.358 11.1553C51.5197 11.8084 51.6459 12.47 51.736 13.1369C51.9535 14.7503 51.9841 16.6606 51.4364 18.2599C51.2465 18.8144 50.8588 19.2921 50.2086 19.7714L51.358 11.1553ZM42.2054 32.637L41.7547 32.6978C41.7547 32.6976 41.7546 32.6974 41.7546 32.6971L42.3607 32.7681C42.3084 32.7252 42.2566 32.6815 42.2054 32.637ZM42.2054 32.637L42.3402 32.6187L42.2054 32.637Z" stroke="white" stroke-width="1.18172"/>
</g>
<defs>
<clipPath id="clip0_22_42">
<rect width="37.8043" height="37.8043" fill="white" transform="translate(0 46.2375) rotate(-61.9247)"/>
</clipPath>
<clipPath id="clip1_22_42">
<rect width="24.308" height="24.308" fill="white" transform="translate(32.1454 17.1243) rotate(-26.0944)"/>
</clipPath>
</defs>
</svg>
