<svg width="67" height="68" viewBox="0 0 67 68" fill="none" xmlns="http://www.w3.org/2000/svg">
<circle cx="33.9189" cy="34" r="33.0811" fill="#BC8A5F"/>
<circle cx="33.9189" cy="34" r="30.0811" stroke="white" stroke-width="2"/>
<line x1="18.234" y1="10.1441" x2="30.063" y2="26.5227" stroke="white" stroke-width="2" stroke-linecap="round"/>
<line x1="39.5202" y1="41.3733" x2="52.012" y2="56.9972" stroke="white" stroke-width="1.89834"/>
<path fill-rule="evenodd" clip-rule="evenodd" d="M45.2701 20.1763C45.4399 20.1216 45.621 20.1123 45.7955 20.1494C45.9699 20.1864 46.1316 20.2686 46.2644 20.3876L54.671 27.9203C54.8055 28.0408 54.9057 28.1947 54.9613 28.3665C55.0169 28.5384 55.0259 28.7218 54.9875 28.8983L52.5854 39.9059C52.5456 40.089 52.4561 40.2575 52.3268 40.3931C52.1975 40.5287 52.0334 40.6261 51.8525 40.6746L41.0439 43.5717C40.8718 43.618 40.6906 43.6184 40.5183 43.5729C40.346 43.5274 40.1887 43.4376 40.0619 43.3124L35.4079 38.7187C35.3124 38.6245 35.2365 38.5124 35.1843 38.3889C35.1322 38.2654 35.1049 38.1328 35.104 37.9987C35.1031 37.8646 35.1286 37.7317 35.1791 37.6074C35.2295 37.4832 35.304 37.3702 35.3982 37.2747C35.4923 37.1793 35.6044 37.1033 35.7279 37.0512C35.8515 36.999 35.9841 36.9717 36.1181 36.9708C36.2522 36.9699 36.3852 36.9954 36.5094 37.0459C36.6336 37.0964 36.7467 37.1708 36.8421 37.265L41.0796 41.4484L50.7234 38.8636L52.8662 29.0432L45.3385 22.2996L35.5824 25.4366L34.5432 28.6114C34.4535 28.8616 34.2697 29.067 34.031 29.1838C33.7922 29.3006 33.5173 29.3197 33.2647 29.237C33.0121 29.1543 32.8017 28.9764 32.6782 28.7409C32.5548 28.5055 32.528 28.2313 32.6036 27.9764L33.8041 24.3066C33.8544 24.1535 33.9402 24.0145 34.0544 23.901C34.1687 23.7874 34.3082 23.7025 34.4616 23.6532L45.2701 20.1763Z" fill="white"/>
<path fill-rule="evenodd" clip-rule="evenodd" d="M43.4969 30.3611C43.6277 30.3908 43.7514 30.4459 43.8609 30.5234C43.9703 30.6008 44.0635 30.6991 44.135 30.8126C44.2065 30.9261 44.2549 31.0525 44.2775 31.1847C44.3001 31.3169 44.2964 31.4523 44.2666 31.5831L41.7145 42.8122C41.6523 43.074 41.4893 43.3006 41.2608 43.4428C41.0324 43.5849 40.7571 43.6312 40.4948 43.5715C40.2324 43.5117 40.0043 43.3508 39.8599 43.1238C39.7156 42.8967 39.6667 42.6219 39.7239 42.359L42.276 31.1298C42.3361 30.8661 42.4985 30.637 42.7274 30.4928C42.9563 30.3487 43.2331 30.3013 43.4969 30.3611Z" fill="white"/>
<path fill-rule="evenodd" clip-rule="evenodd" d="M34.3258 24.0605C34.4125 23.9582 34.5185 23.874 34.6378 23.8126C34.7571 23.7513 34.8873 23.714 35.0209 23.7031C35.1546 23.6921 35.2891 23.7075 35.4168 23.7485C35.5445 23.7895 35.6629 23.8553 35.7652 23.9421L43.1805 30.2304L50.1487 28.3297C50.41 28.2584 50.6888 28.2939 50.9239 28.4283C51.159 28.5627 51.3311 28.785 51.4023 29.0463C51.4735 29.3075 51.438 29.5864 51.3036 29.8215C51.1692 30.0566 50.9469 30.2287 50.6857 30.2999L43.1989 32.3415C43.0389 32.3852 42.8708 32.3892 42.7089 32.3533C42.547 32.3174 42.3964 32.2425 42.2699 32.1353L34.4442 25.4999C34.3419 25.4132 34.2576 25.3072 34.1963 25.1879C34.135 25.0686 34.0977 24.9384 34.0867 24.8048C34.0757 24.6711 34.0912 24.5366 34.1322 24.4089C34.1732 24.2812 34.239 24.1628 34.3258 24.0605ZM21.0601 25.5142C21.1887 25.3912 21.3473 25.3039 21.5201 25.2611C21.693 25.2183 21.8739 25.2215 22.0452 25.2702L30.4875 27.6804C30.6589 27.7294 30.8146 27.8225 30.9389 27.9504C31.0632 28.0783 31.1518 28.2365 31.1959 28.4093L33.5408 37.5682C33.5877 37.7506 33.5832 37.9423 33.5279 38.1223C33.4726 38.3023 33.3686 38.4635 33.2274 38.588L26.6604 44.372C26.5321 44.4852 26.3775 44.5643 26.2107 44.6021C26.044 44.6399 25.8704 44.6352 25.7059 44.5885L17.2636 42.1773C17.0944 42.129 16.9405 42.0379 16.817 41.9127C16.6934 41.7875 16.6042 41.6325 16.5582 41.4627L14.2123 32.7856C14.1645 32.6084 14.1653 32.4216 14.2147 32.2448C14.2641 32.068 14.3603 31.9078 14.493 31.7811L21.0601 25.5142ZM22.0462 27.3946L16.3418 32.8387L18.3783 40.3724L25.7294 42.4713L31.4082 37.4692L29.3635 29.4832L22.0462 27.3946Z" fill="white"/>
<path fill-rule="evenodd" clip-rule="evenodd" d="M28.1701 30.6347C28.3615 30.8262 28.469 31.0858 28.469 31.3564C28.469 31.6271 28.3615 31.8867 28.1701 32.0782L24.0868 36.1615C23.9589 36.2893 23.7994 36.3808 23.6245 36.4268C23.4496 36.4727 23.2657 36.4713 23.0915 36.4228L14.9248 34.1545C14.7944 34.1198 14.6722 34.0596 14.5652 33.9773C14.4582 33.895 14.3686 33.7923 14.3016 33.6752C14.2345 33.5581 14.1914 33.4288 14.1746 33.2949C14.1578 33.161 14.1678 33.0251 14.2039 32.895C14.24 32.765 14.3015 32.6434 14.3849 32.5373C14.4683 32.4311 14.572 32.3426 14.6898 32.2768C14.8076 32.211 14.9373 32.1692 15.0714 32.1539C15.2055 32.1385 15.3413 32.1499 15.471 32.1874L23.0639 34.2964L26.7267 30.6347C26.9181 30.4433 27.1777 30.3358 27.4484 30.3358C27.7191 30.3358 27.9787 30.4433 28.1701 30.6347Z" fill="white"/>
<path fill-rule="evenodd" clip-rule="evenodd" d="M23.1171 34.4495C23.3797 34.3838 23.6577 34.425 23.8899 34.5642C24.1221 34.7034 24.2895 34.9291 24.3553 35.1917L26.397 43.3584C26.4307 43.4888 26.4382 43.6245 26.4191 43.7578C26.4001 43.8912 26.3549 44.0194 26.2861 44.1352C26.2172 44.2509 26.1262 44.3519 26.0182 44.4323C25.9101 44.5128 25.7873 44.571 25.6566 44.6037C25.526 44.6365 25.3902 44.643 25.257 44.623C25.1238 44.603 24.9959 44.5569 24.8807 44.4872C24.7654 44.4176 24.665 44.3258 24.5854 44.2172C24.5058 44.1086 24.4484 43.9854 24.4166 43.8545L22.3749 35.6878C22.3091 35.4252 22.3504 35.1472 22.4896 34.915C22.6287 34.6828 22.8545 34.5153 23.1171 34.4495Z" fill="white"/>
</svg>
